<svg xmlns="http://www.w3.org/2000/svg" viewBox="0 0 1200 120" width="1200" height="120"><g transform="translate(0,0)"><path d="M 100 4 L 156 60 L 100 116 L 44 60 Z" fill="none" stroke="#F6F2EB" stroke-width="3"></path><path d="M 100 34 L 126 60 L 100 86 L 74 60 Z" fill="none" stroke="#F6F2EB" stroke-width="2.4"></path><path d="M 100 52 L 108 60 L 100 68 L 92 60 Z" fill="#F6F2EB"></path><path d="M 0 52 L 8 60 L 0 68 L -8 60 Z" fill="#F6F2EB"></path><line x1="111.13" y1="34.20" x2="118.20" y2="27.13" stroke="#F6F2EB" stroke-width="2.4"></line><line x1="125.80" y1="48.87" x2="132.87" y2="41.80" stroke="#F6F2EB" stroke-width="2.4"></line><line x1="125.80" y1="71.13" x2="132.87" y2="78.20" stroke="#F6F2EB" stroke-width="2.4"></line><line x1="111.13" y1="85.80" x2="118.20" y2="92.87" stroke="#F6F2EB" stroke-width="2.4"></line><line x1="88.87" y1="85.80" x2="81.80" y2="92.87" stroke="#F6F2EB" stroke-width="2.4"></line><line x1="74.20" y1="71.13" x2="67.13" y2="78.20" stroke="#F6F2EB" stroke-width="2.4"></line><line x1="74.20" y1="48.87" x2="67.13" y2="41.80" stroke="#F6F2EB" stroke-width="2.4"></line><line x1="88.87" y1="34.20" x2="81.80" y2="27.13" stroke="#F6F2EB" stroke-width="2.4"></line></g><g transform="translate(200,0)"><path d="M 100 4 L 156 60 L 100 116 L 44 60 Z" fill="none" stroke="#F6F2EB" stroke-width="3"></path><path d="M 100 34 L 126 60 L 100 86 L 74 60 Z" fill="none" stroke="#F6F2EB" stroke-width="2.4"></path><path d="M 100 52 L 108 60 L 100 68 L 92 60 Z" fill="#F6F2EB"></path><path d="M 0 52 L 8 60 L 0 68 L -8 60 Z" fill="#F6F2EB"></path><line x1="111.13" y1="34.20" x2="118.20" y2="27.13" stroke="#F6F2EB" stroke-width="2.4"></line><line x1="125.80" y1="48.87" x2="132.87" y2="41.80" stroke="#F6F2EB" stroke-width="2.4"></line><line x1="125.80" y1="71.13" x2="132.87" y2="78.20" stroke="#F6F2EB" stroke-width="2.4"></line><line x1="111.13" y1="85.80" x2="118.20" y2="92.87" stroke="#F6F2EB" stroke-width="2.4"></line><line x1="88.87" y1="85.80" x2="81.80" y2="92.87" stroke="#F6F2EB" stroke-width="2.4"></line><line x1="74.20" y1="71.13" x2="67.13" y2="78.20" stroke="#F6F2EB" stroke-width="2.4"></line><line x1="74.20" y1="48.87" x2="67.13" y2="41.80" stroke="#F6F2EB" stroke-width="2.4"></line><line x1="88.87" y1="34.20" x2="81.80" y2="27.13" stroke="#F6F2EB" stroke-width="2.4"></line></g><g transform="translate(400,0)"><path d="M 100 4 L 156 60 L 100 116 L 44 60 Z" fill="none" stroke="#F6F2EB" stroke-width="3"></path><path d="M 100 34 L 126 60 L 100 86 L 74 60 Z" fill="none" stroke="#F6F2EB" stroke-width="2.4"></path><path d="M 100 52 L 108 60 L 100 68 L 92 60 Z" fill="#F6F2EB"></path><path d="M 0 52 L 8 60 L 0 68 L -8 60 Z" fill="#F6F2EB"></path><line x1="111.13" y1="34.20" x2="118.20" y2="27.13" stroke="#F6F2EB" stroke-width="2.4"></line><line x1="125.80" y1="48.87" x2="132.87" y2="41.80" stroke="#F6F2EB" stroke-width="2.4"></line><line x1="125.80" y1="71.13" x2="132.87" y2="78.20" stroke="#F6F2EB" stroke-width="2.4"></line><line x1="111.13" y1="85.80" x2="118.20" y2="92.87" stroke="#F6F2EB" stroke-width="2.4"></line><line x1="88.87" y1="85.80" x2="81.80" y2="92.87" stroke="#F6F2EB" stroke-width="2.4"></line><line x1="74.20" y1="71.13" x2="67.13" y2="78.20" stroke="#F6F2EB" stroke-width="2.4"></line><line x1="74.20" y1="48.87" x2="67.13" y2="41.80" stroke="#F6F2EB" stroke-width="2.4"></line><line x1="88.87" y1="34.20" x2="81.80" y2="27.13" stroke="#F6F2EB" stroke-width="2.4"></line></g><g transform="translate(600,0)"><path d="M 100 4 L 156 60 L 100 116 L 44 60 Z" fill="none" stroke="#F6F2EB" stroke-width="3"></path><path d="M 100 34 L 126 60 L 100 86 L 74 60 Z" fill="none" stroke="#F6F2EB" stroke-width="2.4"></path><path d="M 100 52 L 108 60 L 100 68 L 92 60 Z" fill="#F6F2EB"></path><path d="M 0 52 L 8 60 L 0 68 L -8 60 Z" fill="#F6F2EB"></path><line x1="111.13" y1="34.20" x2="118.20" y2="27.13" stroke="#F6F2EB" stroke-width="2.4"></line><line x1="125.80" y1="48.87" x2="132.87" y2="41.80" stroke="#F6F2EB" stroke-width="2.4"></line><line x1="125.80" y1="71.13" x2="132.87" y2="78.20" stroke="#F6F2EB" stroke-width="2.4"></line><line x1="111.13" y1="85.80" x2="118.20" y2="92.87" stroke="#F6F2EB" stroke-width="2.4"></line><line x1="88.87" y1="85.80" x2="81.80" y2="92.87" stroke="#F6F2EB" stroke-width="2.4"></line><line x1="74.20" y1="71.13" x2="67.13" y2="78.20" stroke="#F6F2EB" stroke-width="2.4"></line><line x1="74.20" y1="48.87" x2="67.13" y2="41.80" stroke="#F6F2EB" stroke-width="2.4"></line><line x1="88.87" y1="34.20" x2="81.80" y2="27.13" stroke="#F6F2EB" stroke-width="2.4"></line></g><g transform="translate(800,0)"><path d="M 100 4 L 156 60 L 100 116 L 44 60 Z" fill="none" stroke="#F6F2EB" stroke-width="3"></path><path d="M 100 34 L 126 60 L 100 86 L 74 60 Z" fill="none" stroke="#F6F2EB" stroke-width="2.4"></path><path d="M 100 52 L 108 60 L 100 68 L 92 60 Z" fill="#F6F2EB"></path><path d="M 0 52 L 8 60 L 0 68 L -8 60 Z" fill="#F6F2EB"></path><line x1="111.13" y1="34.20" x2="118.20" y2="27.13" stroke="#F6F2EB" stroke-width="2.4"></line><line x1="125.80" y1="48.87" x2="132.87" y2="41.80" stroke="#F6F2EB" stroke-width="2.4"></line><line x1="125.80" y1="71.13" x2="132.87" y2="78.20" stroke="#F6F2EB" stroke-width="2.4"></line><line x1="111.13" y1="85.80" x2="118.20" y2="92.87" stroke="#F6F2EB" stroke-width="2.4"></line><line x1="88.87" y1="85.80" x2="81.80" y2="92.87" stroke="#F6F2EB" stroke-width="2.4"></line><line x1="74.20" y1="71.13" x2="67.13" y2="78.20" stroke="#F6F2EB" stroke-width="2.4"></line><line x1="74.20" y1="48.87" x2="67.13" y2="41.80" stroke="#F6F2EB" stroke-width="2.4"></line><line x1="88.87" y1="34.20" x2="81.80" y2="27.13" stroke="#F6F2EB" stroke-width="2.4"></line></g><g transform="translate(1000,0)"><path d="M 100 4 L 156 60 L 100 116 L 44 60 Z" fill="none" stroke="#F6F2EB" stroke-width="3"></path><path d="M 100 34 L 126 60 L 100 86 L 74 60 Z" fill="none" stroke="#F6F2EB" stroke-width="2.4"></path><path d="M 100 52 L 108 60 L 100 68 L 92 60 Z" fill="#F6F2EB"></path><path d="M 0 52 L 8 60 L 0 68 L -8 60 Z" fill="#F6F2EB"></path><line x1="111.13" y1="34.20" x2="118.20" y2="27.13" stroke="#F6F2EB" stroke-width="2.4"></line><line x1="125.80" y1="48.87" x2="132.87" y2="41.80" stroke="#F6F2EB" stroke-width="2.4"></line><line x1="125.80" y1="71.13" x2="132.87" y2="78.20" stroke="#F6F2EB" stroke-width="2.4"></line><line x1="111.13" y1="85.80" x2="118.20" y2="92.87" stroke="#F6F2EB" stroke-width="2.4"></line><line x1="88.87" y1="85.80" x2="81.80" y2="92.87" stroke="#F6F2EB" stroke-width="2.4"></line><line x1="74.20" y1="71.13" x2="67.13" y2="78.20" stroke="#F6F2EB" stroke-width="2.4"></line><line x1="74.20" y1="48.87" x2="67.13" y2="41.80" stroke="#F6F2EB" stroke-width="2.4"></line><line x1="88.87" y1="34.20" x2="81.80" y2="27.13" stroke="#F6F2EB" stroke-width="2.4"></line></g></svg>